<svg width="19" height="12" viewBox="0 0 19 12" fill="none" xmlns="http://www.w3.org/2000/svg">
<path d="M11.5818 4.39235L9.87463 1.7803C9.51231 1.22595 9.69178 0.480923 10.2668 0.152354C10.6546 -0.0692895 11.1358 -0.0462941 11.5007 0.211331L17.4282 4.39543C18.2569 4.98037 18.2469 6.2127 17.4088 6.7841L13.8099 9.23792L11.4546 11.2308C11.0056 11.6108 10.3403 11.5831 9.92445 11.1672C9.51608 10.7588 9.48101 10.1083 9.84312 9.65844L11.9366 7.05742L0.631023 6.82795C0.280466 6.82083 0 6.53461 0 6.18398C0 5.8542 0.249098 5.57769 0.577092 5.54339L11.5818 4.39235Z" fill="white"/>
</svg>
